<svg width="1200" height="630" viewBox="0 0 1200 630" xmlns="http://www.w3.org/2000/svg"><mask id="satori_om-id"><rect x="0" y="0" width="1200" height="630" fill="#fff"/></mask><rect x="0" y="0" width="1200" height="630" fill="#fefbfb"/><defs><clipPath id="satori_bc-id-0"><path x="105" y="39" width="1056" height="504" d="M109,39 h1048 a4,4 0 0 1 4,4 v496 a4,4 0 0 1 -4,4 h-1048 a4,4 0 0 1 -4,-4 v-496 a4,4 0 0 1 4,-4"/></clipPath></defs><mask id="satori_om-id-0"><rect x="109" y="43" width="1048" height="496" fill="#fff"/><path width="1056" height="504" fill="none" stroke="#000" stroke-width="8" d="M106.172,40.172 A4,4 0 0 1 109,39 h1048 a4,4 0 0 1 4,4 v496 a4,4 0 0 1 -4,4 h-1048 a4,4 0 0 1 -4,-4 v-496 A4,4 0 0 1 106.172,40.172"/></mask><g opacity="0.9"><path x="105" y="39" width="1056" height="504" fill="#ecebeb" d="M109,39 h1048 a4,4 0 0 1 4,4 v496 a4,4 0 0 1 -4,4 h-1048 a4,4 0 0 1 -4,-4 v-496 a4,4 0 0 1 4,-4"/><path width="1056" height="504" clip-path="url(#satori_bc-id-0)" fill="none" stroke="#000" stroke-width="8" d="M106.172,40.172 A4,4 0 0 1 109,39 h1048 a4,4 0 0 1 4,4 v496 a4,4 0 0 1 -4,4 h-1048 a4,4 0 0 1 -4,-4 v-496 A4,4 0 0 1 106.172,40.172"/></g><defs><clipPath id="satori_bc-id-1"><path x="72" y="63" width="1056" height="504" d="M76,63 h1048 a4,4 0 0 1 4,4 v496 a4,4 0 0 1 -4,4 h-1048 a4,4 0 0 1 -4,-4 v-496 a4,4 0 0 1 4,-4"/></clipPath></defs><mask id="satori_om-id-1"><rect x="76" y="67" width="1048" height="496" fill="#fff"/><path width="1056" height="504" fill="none" stroke="#000" stroke-width="8" d="M73.172,64.172 A4,4 0 0 1 76,63 h1048 a4,4 0 0 1 4,4 v496 a4,4 0 0 1 -4,4 h-1048 a4,4 0 0 1 -4,-4 v-496 A4,4 0 0 1 73.172,64.172"/></mask><path x="72" y="63" width="1056" height="504" fill="#fefbfb" d="M76,63 h1048 a4,4 0 0 1 4,4 v496 a4,4 0 0 1 -4,4 h-1048 a4,4 0 0 1 -4,-4 v-496 a4,4 0 0 1 4,-4"/><path width="1056" height="504" clip-path="url(#satori_bc-id-1)" fill="none" stroke="#000" stroke-width="8" d="M73.172,64.172 A4,4 0 0 1 76,63 h1048 a4,4 0 0 1 4,4 v496 a4,4 0 0 1 -4,4 h-1048 a4,4 0 0 1 -4,-4 v-496 A4,4 0 0 1 73.172,64.172"/><mask id="satori_om-id-1-0"><rect x="128" y="87" width="944" height="446" fill="#fff"/></mask><clipPath id="satori_cp-id-1-0-0"><rect x="128" y="103" width="944" height="94"/></clipPath><mask id="satori_om-id-1-0-0"><rect x="128" y="103" width="944" height="94" fill="#fff"/></mask><path fill="black" d="M170.8 183.0L159.3 183.0L156.2 170.9L142.4 170.9L139.3 183.0L128.4 183.0L142.0 132.7L157.2 132.7L170.8 183.0ZM154.5 162.1L149.6 143.1L149.0 143.1L144.1 162.1L154.5 162.1Z M230.7 183.0L219.9 183.0L219.9 132.7L239.3 132.7Q243.0 132.7 245.9 133.8Q248.7 134.9 250.7 137.0Q252.7 139.1 253.7 142.1Q254.7 145.0 254.7 148.7L254.7 148.7Q254.7 152.4 253.7 155.3Q252.7 158.3 250.7 160.3Q248.7 162.4 245.9 163.5Q243.0 164.7 239.3 164.7L239.3 164.7L230.7 164.7L230.7 183.0ZM230.7 141.4L230.7 156.0L236.6 156.0Q240.4 156.0 241.9 154.5Q243.3 153.1 243.3 149.8L243.3 149.8L243.3 147.6Q243.3 144.3 241.9 142.8Q240.4 141.4 236.6 141.4L236.6 141.4L230.7 141.4ZM279.2 183.8L279.2 183.8Q274.9 183.8 271.4 182.5Q268.0 181.2 265.6 178.6Q263.1 176.1 261.8 172.5Q260.6 168.9 260.6 164.4L260.6 164.4Q260.6 159.8 261.8 156.2Q263.1 152.6 265.6 150.1Q268.0 147.6 271.4 146.3Q274.9 144.9 279.2 144.9L279.2 144.9Q283.5 144.9 287.0 146.3Q290.4 147.6 292.8 150.1Q295.3 152.6 296.6 156.2Q297.8 159.8 297.8 164.4L297.8 164.4Q297.8 168.9 296.6 172.5Q295.3 176.1 292.8 178.6Q290.4 181.2 287.0 182.5Q283.5 183.8 279.2 183.8ZM279.2 175.9L279.2 175.9Q282.8 175.9 284.8 173.7Q286.8 171.4 286.8 167.3L286.8 167.3L286.8 161.4Q286.8 157.3 284.8 155.1Q282.8 152.9 279.2 152.9L279.2 152.9Q275.6 152.9 273.6 155.1Q271.6 157.3 271.6 161.4L271.6 161.4L271.6 167.3Q271.6 171.4 273.6 173.7Q275.6 175.9 279.2 175.9ZM322.0 183.8L322.0 183.8Q315.8 183.8 311.2 181.9Q306.6 180.1 304.3 176.8L304.3 176.8L310.3 171.3Q312.5 173.7 315.4 175.0Q318.3 176.3 322.0 176.3L322.0 176.3Q325.2 176.3 327.0 175.4Q328.8 174.4 328.8 172.4L328.8 172.4Q328.8 170.8 327.6 170.2Q326.4 169.6 324.2 169.2L324.2 169.2L318.2 168.3Q315.7 167.9 313.5 167.1Q311.4 166.4 309.8 165.1Q308.2 163.8 307.3 161.9Q306.3 160.1 306.3 157.4L306.3 157.4Q306.3 151.6 310.8 148.2Q315.3 144.9 323.3 144.9L323.3 144.9Q328.8 144.9 332.7 146.4Q336.5 147.9 338.8 150.6L338.8 150.6L333.5 156.7Q331.8 154.9 329.2 153.6Q326.6 152.4 323.0 152.4L323.0 152.4Q316.8 152.4 316.8 156.2L316.8 156.2Q316.8 157.8 318.0 158.4Q319.2 159.0 321.4 159.4L321.4 159.4L327.3 160.3Q329.8 160.7 332.0 161.5Q334.1 162.2 335.8 163.5Q337.4 164.8 338.3 166.7Q339.2 168.6 339.2 171.2L339.2 171.2Q339.2 177.0 334.7 180.4Q330.2 183.8 322.0 183.8ZM382.2 183.0L368.5 183.0Q362.7 183.0 359.9 179.9Q357.1 176.9 357.1 172.2L357.1 172.2L357.1 154.1L347.0 154.1L347.0 145.8L353.6 145.8Q356.0 145.8 357.0 144.9Q358.0 143.9 358.0 141.4L358.0 141.4L358.0 132.7L367.8 132.7L367.8 145.8L382.2 145.8L382.2 154.1L367.8 154.1L367.8 174.7L382.2 174.7L382.2 183.0Z M452 183.8L452 183.8Q447.7 183.8 444.2 182.5Q440.8 181.2 438.4 178.6Q435.9 176.1 434.6 172.5Q433.4 168.9 433.4 164.4L433.4 164.4Q433.4 159.8 434.6 156.2Q435.9 152.6 438.4 150.1Q440.8 147.6 444.2 146.3Q447.7 144.9 452 144.9L452 144.9Q456.3 144.9 459.8 146.3Q463.2 147.6 465.6 150.1Q468.1 152.6 469.4 156.2Q470.6 159.8 470.6 164.4L470.6 164.4Q470.6 168.9 469.4 172.5Q468.1 176.1 465.6 178.6Q463.2 181.2 459.8 182.5Q456.3 183.8 452 183.8ZM452 175.9L452 175.9Q455.6 175.9 457.6 173.7Q459.6 171.4 459.6 167.3L459.6 167.3L459.6 161.4Q459.6 157.3 457.6 155.1Q455.6 152.9 452 152.9L452 152.9Q448.4 152.9 446.4 155.1Q444.4 157.3 444.4 161.4L444.4 161.4L444.4 167.3Q444.4 171.4 446.4 173.7Q448.4 175.9 452 175.9ZM488.9 183.0L478.3 183.0L478.3 145.8L488.9 145.8L488.9 152.6L489.4 152.6Q490.0 151.0 491.0 149.6Q491.9 148.2 493.2 147.2Q494.6 146.2 496.3 145.5Q498.1 144.9 500.3 144.9L500.3 144.9Q503.0 144.9 505.2 145.8Q507.4 146.7 509.0 148.5Q510.6 150.3 511.5 152.9Q512.4 155.5 512.4 158.9L512.4 158.9L512.4 183.0L501.8 183.0L501.8 160.3Q501.8 153.1 495.5 153.1L495.5 153.1Q494.3 153.1 493.1 153.5Q491.9 153.8 491.0 154.5Q490.0 155.2 489.5 156.2Q488.9 157.2 488.9 158.5L488.9 158.5L488.9 183.0Z M576.3 183.0L565.5 183.0L565.5 132.7L584.9 132.7Q588.6 132.7 591.5 133.8Q594.3 134.9 596.3 137.0Q598.3 139.1 599.3 142.1Q600.3 145.0 600.3 148.7L600.3 148.7Q600.3 152.4 599.3 155.3Q598.3 158.3 596.3 160.3Q594.3 162.4 591.5 163.5Q588.6 164.7 584.9 164.7L584.9 164.7L576.3 164.7L576.3 183.0ZM576.3 141.4L576.3 156.0L582.2 156.0Q586.0 156.0 587.5 154.5Q588.9 153.1 588.9 149.8L588.9 149.8L588.9 147.6Q588.9 144.3 587.5 142.8Q586.0 141.4 582.2 141.4L582.2 141.4L576.3 141.4ZM624.8 183.8L624.8 183.8Q620.5 183.8 617.0 182.5Q613.6 181.2 611.2 178.6Q608.7 176.1 607.4 172.5Q606.2 168.9 606.2 164.4L606.2 164.4Q606.2 159.8 607.4 156.2Q608.7 152.6 611.2 150.1Q613.6 147.6 617.0 146.3Q620.5 144.9 624.8 144.9L624.8 144.9Q629.1 144.9 632.6 146.3Q636.0 147.6 638.4 150.1Q640.9 152.6 642.2 156.2Q643.4 159.8 643.4 164.4L643.4 164.4Q643.4 168.9 642.2 172.5Q640.9 176.1 638.4 178.6Q636.0 181.2 632.6 182.5Q629.1 183.8 624.8 183.8ZM624.8 175.9L624.8 175.9Q628.4 175.9 630.4 173.7Q632.4 171.4 632.4 167.3L632.4 167.3L632.4 161.4Q632.4 157.3 630.4 155.1Q628.4 152.9 624.8 152.9L624.8 152.9Q621.2 152.9 619.2 155.1Q617.2 157.3 617.2 161.4L617.2 161.4L617.2 167.3Q617.2 171.4 619.2 173.7Q621.2 175.9 624.8 175.9ZM668.0 183.8L668.0 183.8Q663.7 183.8 660.2 182.5Q656.8 181.2 654.4 178.6Q651.9 176.1 650.6 172.5Q649.4 168.9 649.4 164.4L649.4 164.4Q649.4 159.8 650.6 156.2Q651.9 152.6 654.4 150.1Q656.8 147.6 660.2 146.3Q663.7 144.9 668.0 144.9L668.0 144.9Q672.3 144.9 675.8 146.3Q679.2 147.6 681.6 150.1Q684.1 152.6 685.4 156.2Q686.6 159.8 686.6 164.4L686.6 164.4Q686.6 168.9 685.4 172.5Q684.1 176.1 681.6 178.6Q679.2 181.2 675.8 182.5Q672.3 183.8 668.0 183.8ZM668.0 175.9L668.0 175.9Q671.6 175.9 673.6 173.7Q675.6 171.4 675.6 167.3L675.6 167.3L675.6 161.4Q675.6 157.3 673.6 155.1Q671.6 152.9 668.0 152.9L668.0 152.9Q664.4 152.9 662.4 155.1Q660.4 157.3 660.4 161.4L660.4 161.4L660.4 167.3Q660.4 171.4 662.4 173.7Q664.4 175.9 668.0 175.9ZM693.8 197.4L693.8 145.8L704.5 145.8L704.5 152.6L705.0 152.6Q706.4 149.3 709.0 147.1Q711.6 144.9 716.0 144.9L716.0 144.9Q719.1 144.9 721.7 146.1Q724.2 147.2 726.1 149.6Q727.9 152.0 728.9 155.7Q730.0 159.3 730.0 164.4L730.0 164.4Q730.0 169.4 728.9 173.1Q727.9 176.8 726.1 179.1Q724.2 181.5 721.7 182.7Q719.1 183.8 716.0 183.8L716.0 183.8Q711.6 183.8 709.0 181.7Q706.4 179.6 705.0 176.2L705.0 176.2L704.5 176.2L704.5 197.4L693.8 197.4ZM711.4 175.5L711.4 175.5Q715.0 175.5 717.0 173.3Q718.9 171.1 718.9 167.3L718.9 167.3L718.9 161.5Q718.9 157.6 717.0 155.4Q715.0 153.2 711.4 153.2L711.4 153.2Q708.6 153.2 706.6 154.6Q704.5 156.0 704.5 158.9L704.5 158.9L704.5 169.8Q704.5 172.8 706.6 174.2Q708.6 175.5 711.4 175.5ZM754.0 183.8L754.0 183.8Q747.8 183.8 743.2 181.9Q738.6 180.1 736.3 176.8L736.3 176.8L742.3 171.3Q744.5 173.7 747.4 175.0Q750.3 176.3 754.0 176.3L754.0 176.3Q757.2 176.3 759.0 175.4Q760.8 174.4 760.8 172.4L760.8 172.4Q760.8 170.8 759.6 170.2Q758.4 169.6 756.2 169.2L756.2 169.2L750.2 168.3Q747.7 167.9 745.5 167.1Q743.4 166.4 741.8 165.1Q740.2 163.8 739.3 161.9Q738.3 160.1 738.3 157.4L738.3 157.4Q738.3 151.6 742.8 148.2Q747.3 144.9 755.3 144.9L755.3 144.9Q760.8 144.9 764.7 146.4Q768.5 147.9 770.8 150.6L770.8 150.6L765.5 156.7Q763.8 154.9 761.2 153.6Q758.6 152.4 755.0 152.4L755.0 152.4Q748.8 152.4 748.8 156.2L748.8 156.2Q748.8 157.8 750.0 158.4Q751.2 159.0 753.4 159.4L753.4 159.4L759.3 160.3Q761.8 160.7 764.0 161.5Q766.1 162.2 767.8 163.5Q769.4 164.8 770.3 166.7Q771.2 168.6 771.2 171.2L771.2 171.2Q771.2 177.0 766.7 180.4Q762.2 183.8 754.0 183.8Z " clip-path="url(#satori_cp-id-1-0-0)" mask="url(#satori_om-id-1-0-0)"/><mask id="satori_om-id-1-0-1"><rect x="128" y="489" width="944" height="36" fill="#fff"/></mask><mask id="satori_om-id-1-0-1-0"><rect x="128" y="489" width="236" height="36" fill="#fff"/></mask><path fill="black" d="M130.7 520.3L130.7 499.6L132.9 499.6L132.9 508.2L133.0 508.2Q134.4 505.5 137.5 505.5L137.5 505.5Q140.1 505.5 141.6 507.5Q143.1 509.5 143.1 513.0L143.1 513.0Q143.1 516.6 141.6 518.6Q140.1 520.6 137.5 520.6L137.5 520.6Q134.4 520.6 133.0 517.9L133.0 517.9L132.9 517.9L132.9 520.3L130.7 520.3ZM136.6 518.6L136.6 518.6Q138.6 518.6 139.6 517.4Q140.7 516.2 140.7 514.3L140.7 514.3L140.7 511.8Q140.7 509.9 139.6 508.7Q138.6 507.5 136.6 507.5L136.6 507.5Q135.8 507.5 135.2 507.7Q134.5 507.9 134.0 508.2Q133.5 508.6 133.2 509.2Q132.9 509.7 132.9 510.4L132.9 510.4L132.9 515.7Q132.9 516.4 133.2 516.9Q133.5 517.5 134.0 517.8Q134.5 518.2 135.2 518.4Q135.8 518.6 136.6 518.6ZM155.4 511.9L157.9 505.8L160.1 505.8L152.9 523.4Q152.7 524.1 152.4 524.5Q152.1 525.0 151.7 525.3Q151.2 525.6 150.7 525.7Q150.1 525.9 149.3 525.9L149.3 525.9L147.1 525.9L147.1 524.0L150.5 524.0L152.1 520.0L146.3 505.8L148.6 505.8L151.0 511.9L153.2 517.4L153.3 517.4L155.4 511.9Z "/><mask id="satori_om-id-1-0-1-0-1"><rect x="162" y="489" width="17" height="36" fill="#fff"/></mask><clipPath id="satori_cp-id-1-0-1-0-2"><rect x="178" y="489" width="185" height="36"/></clipPath><mask id="satori_om-id-1-0-1-0-2"><rect x="178" y="489" width="185" height="36" fill="#fff"/></mask><path fill="black" d="M181.6 500.5L192.3 500.5L192.3 514.6Q192.3 515.9 191.8 517.0Q191.4 518.1 190.5 518.9Q189.7 519.6 188.5 520.0Q187.3 520.4 185.8 520.4L185.8 520.4Q182.8 520.4 181.2 518.9Q179.5 517.4 179.1 515.0L179.1 515.0L183.0 514.2Q183.3 515.4 183.9 516.2Q184.5 517.0 185.8 517.0L185.8 517.0Q186.8 517.0 187.4 516.3Q188.1 515.6 188.1 514.2L188.1 514.2L188.1 504.0L181.6 504.0L181.6 500.5ZM203.2 520.4L203.2 520.4Q201.5 520.4 200.2 519.9Q198.8 519.4 197.9 518.4Q197.0 517.4 196.5 516.0Q195.9 514.6 195.9 512.9L195.9 512.9Q195.9 511.1 196.5 509.7Q197.0 508.3 197.9 507.3Q198.8 506.3 200.2 505.8Q201.5 505.3 203.2 505.3L203.2 505.3Q204.9 505.3 206.2 505.8Q207.6 506.3 208.5 507.3Q209.4 508.3 209.9 509.7Q210.5 511.1 210.5 512.9L210.5 512.9Q210.5 514.6 209.9 516.0Q209.4 517.4 208.5 518.4Q207.6 519.4 206.2 519.9Q204.9 520.4 203.2 520.4ZM203.2 517.3L203.2 517.3Q204.6 517.3 205.4 516.5Q206.2 515.6 206.2 514.0L206.2 514.0L206.2 511.7Q206.2 510.1 205.4 509.3Q204.6 508.4 203.2 508.4L203.2 508.4Q201.8 508.4 201.0 509.3Q200.2 510.1 200.2 511.7L200.2 511.7L200.2 514.0Q200.2 515.6 201.0 516.5Q201.8 517.3 203.2 517.3ZM217.6 520.1L213.4 520.1L213.4 505.6L217.6 505.6L217.6 508.3L217.7 508.3Q218.0 507.7 218.3 507.1Q218.7 506.6 219.2 506.2Q219.7 505.8 220.4 505.5Q221.1 505.3 222.0 505.3L222.0 505.3Q223.0 505.3 223.9 505.7Q224.8 506.0 225.4 506.7Q226.0 507.4 226.3 508.4Q226.7 509.4 226.7 510.7L226.7 510.7L226.7 520.1L222.5 520.1L222.5 511.3Q222.5 508.5 220.1 508.5L220.1 508.5Q219.6 508.5 219.2 508.6Q218.7 508.8 218.3 509.0Q218.0 509.3 217.8 509.7Q217.6 510.1 217.6 510.6L217.6 510.6L217.6 520.1Z M259.9 520.1L247.4 520.1L247.4 500.5L259.9 500.5L259.9 504.0L251.6 504.0L251.6 508.5L259.6 508.5L259.6 511.9L251.6 511.9L251.6 516.6L259.9 516.6L259.9 520.1ZM263.9 520.1L263.9 516.9L268.3 516.9L268.3 502.6L263.9 502.6L263.9 499.4L272.5 499.4L272.5 516.9L276.9 516.9L276.9 520.1L263.9 520.1ZM280.7 520.1L280.7 516.9L285.1 516.9L285.1 502.6L280.7 502.6L280.7 499.4L289.3 499.4L289.3 516.9L293.7 516.9L293.7 520.1L280.7 520.1ZM297.5 520.1L295.8 505.6L299.2 505.6L300.3 517.3L300.6 517.3L302.3 505.6L305.9 505.6L307.6 517.3L307.9 517.3L308.9 505.6L312.2 505.6L310.5 520.1L305.6 520.1L304.1 510.1L303.9 510.1L302.4 520.1L297.5 520.1ZM320.8 520.4L320.8 520.4Q319.1 520.4 317.8 519.9Q316.4 519.4 315.5 518.4Q314.6 517.4 314.1 516.0Q313.5 514.6 313.5 512.9L313.5 512.9Q313.5 511.1 314.1 509.7Q314.6 508.3 315.5 507.3Q316.4 506.3 317.8 505.8Q319.1 505.3 320.8 505.3L320.8 505.3Q322.5 505.3 323.8 505.8Q325.2 506.3 326.1 507.3Q327.0 508.3 327.5 509.7Q328.1 511.1 328.1 512.9L328.1 512.9Q328.1 514.6 327.5 516.0Q327.0 517.4 326.1 518.4Q325.2 519.4 323.8 519.9Q322.5 520.4 320.8 520.4ZM320.8 517.3L320.8 517.3Q322.2 517.3 323.0 516.5Q323.8 515.6 323.8 514.0L323.8 514.0L323.8 511.7Q323.8 510.1 323.0 509.3Q322.2 508.4 320.8 508.4L320.8 508.4Q319.4 508.4 318.6 509.3Q317.8 510.1 317.8 511.7L317.8 511.7L317.8 514.0Q317.8 515.6 318.6 516.5Q319.4 517.3 320.8 517.3ZM337.6 520.4L337.6 520.4Q335.9 520.4 334.6 519.9Q333.2 519.4 332.3 518.4Q331.4 517.4 330.9 516.0Q330.3 514.6 330.3 512.9L330.3 512.9Q330.3 511.1 330.9 509.7Q331.4 508.3 332.3 507.3Q333.2 506.3 334.6 505.8Q335.9 505.3 337.6 505.3L337.6 505.3Q339.3 505.3 340.6 505.8Q342.0 506.3 342.9 507.3Q343.8 508.3 344.3 509.7Q344.9 511.1 344.9 512.9L344.9 512.9Q344.9 514.6 344.3 516.0Q343.8 517.4 342.9 518.4Q342.0 519.4 340.6 519.9Q339.3 520.4 337.6 520.4ZM337.6 517.3L337.6 517.3Q339.0 517.3 339.8 516.5Q340.6 515.6 340.6 514.0L340.6 514.0L340.6 511.7Q340.6 510.1 339.8 509.3Q339.0 508.4 337.6 508.4L337.6 508.4Q336.2 508.4 335.4 509.3Q334.6 510.1 334.6 511.7L334.6 511.7L334.6 514.0Q334.6 515.6 335.4 516.5Q336.2 517.3 337.6 517.3ZM357.0 520.1L357.0 517.5L356.8 517.5Q356.2 518.8 355.3 519.6Q354.3 520.4 352.5 520.4L352.5 520.4Q351.3 520.4 350.3 520.0Q349.3 519.5 348.6 518.6Q347.9 517.7 347.5 516.3Q347.1 514.8 347.1 512.9L347.1 512.9Q347.1 510.9 347.5 509.5Q347.9 508.1 348.6 507.1Q349.3 506.2 350.3 505.8Q351.3 505.3 352.5 505.3L352.5 505.3Q353.4 505.3 354.1 505.5Q354.7 505.8 355.3 506.1Q355.8 506.5 356.2 507.1Q356.5 507.6 356.8 508.3L356.8 508.3L357.0 508.3L357.0 499.4L361.1 499.4L361.1 520.1L357.0 520.1ZM354.3 517.2L354.3 517.2Q355.4 517.2 356.2 516.7Q357.0 516.1 357.0 515.0L357.0 515.0L357.0 510.7Q357.0 509.6 356.2 509.1Q355.4 508.5 354.3 508.5L354.3 508.5Q352.9 508.5 352.2 509.4Q351.4 510.2 351.4 511.7L351.4 511.7L351.4 514.0Q351.4 515.5 352.2 516.4Q352.9 517.2 354.3 517.2Z " clip-path="url(#satori_cp-id-1-0-1-0-2)" mask="url(#satori_om-id-1-0-1-0-2)"/><clipPath id="satori_cp-id-1-0-1-1"><rect x="752" y="489" width="320" height="36"/></clipPath><mask id="satori_om-id-1-0-1-1"><rect x="752" y="489" width="320" height="36" fill="#fff"/></mask><path fill="black" d="M768.1 504.0L762.5 504.0L762.5 520.1L758.3 520.1L758.3 504.0L752.7 504.0L752.7 500.5L768.1 500.5L768.1 504.0ZM770.6 520.1L770.6 499.4L774.8 499.4L774.8 508.3L774.9 508.3Q775.2 507.7 775.5 507.1Q775.9 506.6 776.4 506.2Q776.9 505.8 777.6 505.5Q778.3 505.3 779.2 505.3L779.2 505.3Q780.2 505.3 781.1 505.7Q782.0 506.0 782.6 506.7Q783.2 507.4 783.5 508.4Q783.9 509.4 783.9 510.7L783.9 510.7L783.9 520.1L779.7 520.1L779.7 511.3Q779.7 508.5 777.3 508.5L777.3 508.5Q776.8 508.5 776.4 508.6Q775.9 508.8 775.5 509.0Q775.2 509.3 775.0 509.7Q774.8 510.1 774.8 510.6L774.8 510.6L774.8 520.1L770.6 520.1ZM794.4 520.4L794.4 520.4Q790.8 520.4 788.9 518.4Q787.0 516.4 787.0 512.9L787.0 512.9Q787.0 511.2 787.5 509.7Q788.0 508.3 788.9 507.3Q789.8 506.3 791.1 505.8Q792.4 505.3 794.0 505.3L794.0 505.3Q795.7 505.3 796.9 505.8Q798.2 506.3 799.1 507.3Q800.0 508.2 800.5 509.6Q801.0 511.0 801.0 512.6L801.0 512.6L801.0 513.9L791.1 513.9L791.1 514.1Q791.1 515.5 792.0 516.4Q792.9 517.2 794.5 517.2L794.5 517.2Q795.8 517.2 796.7 516.7Q797.7 516.3 798.3 515.4L798.3 515.4L800.6 517.9Q799.7 518.9 798.2 519.7Q796.7 520.4 794.4 520.4ZM794.1 508.3L794.1 508.3Q792.7 508.3 791.9 509.1Q791.1 509.9 791.1 511.3L791.1 511.3L791.1 511.6L796.9 511.6L796.9 511.3Q796.9 509.9 796.2 509.1Q795.4 508.3 794.1 508.3Z M820.7 500.5L824.9 500.5L824.9 512.9Q824.9 513.8 825.0 514.6Q825.1 515.4 825.3 515.9Q825.6 516.5 826.1 516.7Q826.7 517.0 827.6 517.0L827.6 517.0Q828.5 517.0 829.1 516.7Q829.6 516.5 829.9 515.9Q830.1 515.4 830.2 514.6Q830.3 513.8 830.3 512.9L830.3 512.9L830.3 500.5L834.5 500.5L834.5 512.4Q834.5 514.4 834.2 515.9Q833.9 517.4 833.2 518.4Q832.4 519.4 831.1 519.9Q829.7 520.4 827.6 520.4L827.6 520.4Q825.5 520.4 824.1 519.9Q822.8 519.4 822.0 518.4Q821.3 517.4 821.0 515.9Q820.7 514.4 820.7 512.4L820.7 512.4L820.7 500.5ZM842.0 520.1L837.8 520.1L837.8 505.6L842.0 505.6L842.0 508.3L842.1 508.3Q842.4 507.7 842.7 507.1Q843.1 506.6 843.6 506.2Q844.1 505.8 844.8 505.5Q845.5 505.3 846.4 505.3L846.4 505.3Q847.4 505.3 848.3 505.7Q849.2 506.0 849.8 506.7Q850.4 507.4 850.7 508.4Q851.1 509.4 851.1 510.7L851.1 510.7L851.1 520.1L846.9 520.1L846.9 511.3Q846.9 508.5 844.5 508.5L844.5 508.5Q844.0 508.5 843.6 508.6Q843.1 508.8 842.7 509.0Q842.4 509.3 842.2 509.7Q842.0 510.1 842.0 510.6L842.0 510.6L842.0 520.1ZM854.6 520.1L854.6 499.4L858.8 499.4L858.8 508.3L858.9 508.3Q859.2 507.7 859.5 507.1Q859.9 506.6 860.4 506.2Q860.9 505.8 861.6 505.5Q862.3 505.3 863.2 505.3L863.2 505.3Q864.2 505.3 865.1 505.7Q866.0 506.0 866.6 506.7Q867.2 507.4 867.5 508.4Q867.9 509.4 867.9 510.7L867.9 510.7L867.9 520.1L863.7 520.1L863.7 511.3Q863.7 508.5 861.3 508.5L861.3 508.5Q860.8 508.5 860.4 508.6Q859.9 508.8 859.5 509.0Q859.2 509.3 859.0 509.7Q858.8 510.1 858.8 510.6L858.8 510.6L858.8 520.1L854.6 520.1ZM878.4 520.4L878.4 520.4Q874.8 520.4 872.9 518.4Q871.0 516.4 871.0 512.9L871.0 512.9Q871.0 511.2 871.5 509.7Q872.0 508.3 872.9 507.3Q873.8 506.3 875.1 505.8Q876.4 505.3 878.0 505.3L878.0 505.3Q879.7 505.3 880.9 505.8Q882.2 506.3 883.1 507.3Q884.0 508.2 884.5 509.6Q885.0 511.0 885.0 512.6L885.0 512.6L885.0 513.9L875.1 513.9L875.1 514.1Q875.1 515.5 876.0 516.4Q876.9 517.2 878.5 517.2L878.5 517.2Q879.8 517.2 880.7 516.7Q881.7 516.3 882.3 515.4L882.3 515.4L884.6 517.9Q883.7 518.9 882.2 519.7Q880.7 520.4 878.4 520.4ZM878.1 508.3L878.1 508.3Q876.7 508.3 875.9 509.1Q875.1 509.9 875.1 511.3L875.1 511.3L875.1 511.6L880.9 511.6L880.9 511.3Q880.9 509.9 880.2 509.1Q879.4 508.3 878.1 508.3ZM902.4 520.1L900.0 520.1Q898.7 520.1 898.0 519.4Q897.2 518.8 897.0 517.5L897.0 517.5L896.9 517.5Q896.5 519.0 895.3 519.7Q894.2 520.4 892.5 520.4L892.5 520.4Q890.4 520.4 889.1 519.3Q887.9 518.2 887.9 516.1L887.9 516.1Q887.9 513.8 889.5 512.8Q891.2 511.7 894.4 511.7L894.4 511.7L896.7 511.7L896.7 510.9Q896.7 509.6 896.1 509.0Q895.5 508.3 894.0 508.3L894.0 508.3Q892.7 508.3 891.9 508.8Q891.1 509.3 890.5 510.2L890.5 510.2L888.2 508.1Q889.0 506.9 890.5 506.1Q892.1 505.3 894.5 505.3L894.5 505.3Q897.5 505.3 899.2 506.7Q900.8 508.0 900.8 510.8L900.8 510.8L900.8 517.1L902.4 517.1L902.4 520.1ZM894.1 517.7L894.1 517.7Q895.2 517.7 895.9 517.2Q896.7 516.6 896.7 515.6L896.7 515.6L896.7 513.9L894.5 513.9Q891.9 513.9 891.9 515.6L891.9 515.6L891.9 516.2Q891.9 516.9 892.5 517.3Q893.1 517.7 894.1 517.7ZM905.1 520.1L905.1 516.9L909.5 516.9L909.5 502.6L905.1 502.6L905.1 499.4L913.7 499.4L913.7 516.9L918.1 516.9L918.1 520.1L905.1 520.1ZM934.9 520.1L929.5 520.1Q927.3 520.1 926.2 518.9Q925.1 517.7 925.1 515.9L925.1 515.9L925.1 508.9L921.2 508.9L921.2 505.6L923.7 505.6Q924.6 505.6 925.0 505.3Q925.4 504.9 925.4 503.9L925.4 503.9L925.4 500.5L929.2 500.5L929.2 505.6L934.9 505.6L934.9 508.9L929.2 508.9L929.2 516.9L934.9 516.9L934.9 520.1ZM938.6 520.1L938.6 499.4L942.8 499.4L942.8 508.3L942.9 508.3Q943.2 507.7 943.5 507.1Q943.9 506.6 944.4 506.2Q944.9 505.8 945.6 505.5Q946.3 505.3 947.2 505.3L947.2 505.3Q948.2 505.3 949.1 505.7Q950.0 506.0 950.6 506.7Q951.2 507.4 951.5 508.4Q951.9 509.4 951.9 510.7L951.9 510.7L951.9 520.1L947.7 520.1L947.7 511.3Q947.7 508.5 945.3 508.5L945.3 508.5Q944.8 508.5 944.4 508.6Q943.9 508.8 943.5 509.0Q943.2 509.3 943.0 509.7Q942.8 510.1 942.8 510.6L942.8 510.6L942.8 520.1L938.6 520.1ZM963.5 511.7L965.6 505.6L969.9 505.6L963.1 522.4Q962.4 524.0 961.4 524.9Q960.3 525.7 958.4 525.7L958.4 525.7L955.6 525.7L955.6 522.5L959.1 522.5L960.0 520.0L954.1 505.6L958.6 505.6L960.7 511.7L962.0 515.9L962.2 515.9L963.5 511.7Z M998.6 520.1L992.6 520.1L987.5 500.5L992.1 500.5L994.4 510.5L995.6 516.1L995.8 516.1L997.0 510.5L999.3 500.5L1003.7 500.5L998.6 520.1ZM1012.8 520.4L1012.8 520.4Q1009.2 520.4 1007.3 518.4Q1005.4 516.4 1005.4 512.9L1005.4 512.9Q1005.4 511.2 1005.9 509.7Q1006.4 508.3 1007.3 507.3Q1008.2 506.3 1009.5 505.8Q1010.8 505.3 1012.4 505.3L1012.4 505.3Q1014.1 505.3 1015.3 505.8Q1016.6 506.3 1017.5 507.3Q1018.4 508.2 1018.9 509.6Q1019.4 511.0 1019.4 512.6L1019.4 512.6L1019.4 513.9L1009.5 513.9L1009.5 514.1Q1009.5 515.5 1010.4 516.4Q1011.3 517.2 1012.9 517.2L1012.9 517.2Q1014.2 517.2 1015.1 516.7Q1016.1 516.3 1016.7 515.4L1016.7 515.4L1019.0 517.9Q1018.1 518.9 1016.6 519.7Q1015.1 520.4 1012.8 520.4ZM1012.5 508.3L1012.5 508.3Q1011.1 508.3 1010.3 509.1Q1009.5 509.9 1009.5 511.3L1009.5 511.3L1009.5 511.6L1015.3 511.6L1015.3 511.3Q1015.3 509.9 1014.6 509.1Q1013.8 508.3 1012.5 508.3ZM1037.1 521.5L1037.1 521.5Q1037.1 523.8 1035.2 524.9Q1033.3 526.0 1029.1 526.0L1029.1 526.0Q1027.0 526.0 1025.7 525.8Q1024.4 525.6 1023.6 525.1Q1022.8 524.7 1022.4 524.0Q1022.1 523.4 1022.1 522.7L1022.1 522.7Q1022.1 521.5 1022.8 520.8Q1023.6 520.2 1024.9 519.9L1024.9 519.9L1024.9 519.7Q1024.0 519.4 1023.4 518.9Q1022.9 518.4 1022.9 517.4L1022.9 517.4Q1022.9 516.4 1023.6 515.9Q1024.3 515.4 1025.5 515.1L1025.5 515.1L1025.5 514.9Q1024.2 514.3 1023.5 513.2Q1022.8 512.1 1022.8 510.5L1022.8 510.5Q1022.8 509.2 1023.2 508.2Q1023.7 507.3 1024.5 506.6Q1025.3 506.0 1026.5 505.6Q1027.6 505.3 1029.0 505.3L1029.0 505.3Q1030.4 505.3 1031.6 505.6L1031.6 505.6L1031.6 504.8Q1031.6 504.0 1032.2 503.4Q1032.8 502.9 1033.8 502.9L1033.8 502.9L1036.3 502.9L1036.3 505.9L1032.9 505.9L1032.9 506.1Q1034.0 506.8 1034.7 507.8Q1035.4 508.9 1035.4 510.5L1035.4 510.5Q1035.4 511.7 1034.9 512.7Q1034.5 513.6 1033.6 514.3Q1032.8 514.9 1031.6 515.3Q1030.5 515.6 1029.0 515.6L1029.0 515.6Q1028.4 515.6 1027.8 515.5Q1027.2 515.5 1026.7 515.3L1026.7 515.3Q1026.4 515.5 1026.2 515.8Q1026.0 516.0 1026.0 516.4L1026.0 516.4Q1026.0 516.7 1026.1 516.9Q1026.3 517.1 1026.6 517.2Q1026.9 517.3 1027.3 517.3Q1027.7 517.4 1028.1 517.4L1028.1 517.4L1031.4 517.4Q1032.9 517.4 1034.0 517.7Q1035.1 518.0 1035.8 518.6Q1036.5 519.1 1036.8 519.9Q1037.1 520.6 1037.1 521.5ZM1033.2 521.9L1033.2 521.9Q1033.2 521.3 1032.8 521.0Q1032.3 520.7 1031.0 520.7L1031.0 520.7L1026.1 520.7Q1025.5 521.1 1025.5 521.8L1025.5 521.8Q1025.5 522.5 1026.1 522.9Q1026.7 523.4 1028.1 523.4L1028.1 523.4L1030.5 523.4Q1031.9 523.4 1032.6 523.0Q1033.2 522.6 1033.2 521.9ZM1029.0 513.0L1029.0 513.0Q1030.3 513.0 1030.9 512.4Q1031.4 511.7 1031.4 510.8L1031.4 510.8L1031.4 510.1Q1031.4 509.2 1030.9 508.6Q1030.3 507.9 1029.0 507.9L1029.0 507.9Q1027.8 507.9 1027.2 508.6Q1026.7 509.2 1026.7 510.1L1026.7 510.1L1026.7 510.8Q1026.7 511.7 1027.2 512.4Q1027.8 513.0 1029.0 513.0ZM1053.6 520.1L1051.2 520.1Q1049.9 520.1 1049.2 519.4Q1048.4 518.8 1048.2 517.5L1048.2 517.5L1048.1 517.5Q1047.7 519.0 1046.5 519.7Q1045.4 520.4 1043.7 520.4L1043.7 520.4Q1041.6 520.4 1040.3 519.3Q1039.1 518.2 1039.1 516.1L1039.1 516.1Q1039.1 513.8 1040.7 512.8Q1042.4 511.7 1045.6 511.7L1045.6 511.7L1047.9 511.7L1047.9 510.9Q1047.9 509.6 1047.3 509.0Q1046.7 508.3 1045.2 508.3L1045.2 508.3Q1043.9 508.3 1043.1 508.8Q1042.3 509.3 1041.7 510.2L1041.7 510.2L1039.4 508.1Q1040.2 506.9 1041.7 506.1Q1043.3 505.3 1045.7 505.3L1045.7 505.3Q1048.7 505.3 1050.4 506.7Q1052.0 508.0 1052.0 510.8L1052.0 510.8L1052.0 517.1L1053.6 517.1L1053.6 520.1ZM1045.3 517.7L1045.3 517.7Q1046.4 517.7 1047.1 517.2Q1047.9 516.6 1047.9 515.6L1047.9 515.6L1047.9 513.9L1045.7 513.9Q1043.1 513.9 1043.1 515.6L1043.1 515.6L1043.1 516.2Q1043.1 516.9 1043.7 517.3Q1044.3 517.7 1045.3 517.7ZM1060.4 520.1L1056.2 520.1L1056.2 505.6L1060.4 505.6L1060.4 508.3L1060.5 508.3Q1060.8 507.7 1061.1 507.1Q1061.5 506.6 1062.0 506.2Q1062.5 505.8 1063.2 505.5Q1063.9 505.3 1064.8 505.3L1064.8 505.3Q1065.8 505.3 1066.7 505.7Q1067.6 506.0 1068.2 506.7Q1068.8 507.4 1069.1 508.4Q1069.5 509.4 1069.5 510.7L1069.5 510.7L1069.5 520.1L1065.3 520.1L1065.3 511.3Q1065.3 508.5 1062.9 508.5L1062.9 508.5Q1062.4 508.5 1062.0 508.6Q1061.5 508.8 1061.1 509.0Q1060.8 509.3 1060.6 509.7Q1060.4 510.1 1060.4 510.6L1060.4 510.6L1060.4 520.1Z " clip-path="url(#satori_cp-id-1-0-1-1)" mask="url(#satori_om-id-1-0-1-1)"/></svg>