<svg width="1200" height="630" viewBox="0 0 1200 630" xmlns="http://www.w3.org/2000/svg"><mask id="satori_om-id"><rect x="0" y="0" width="1200" height="630" fill="#fff"/></mask><rect x="0" y="0" width="1200" height="630" fill="#fefbfb"/><defs><clipPath id="satori_bc-id-0"><path x="105" y="39" width="1056" height="504" d="M109,39 h1048 a4,4 0 0 1 4,4 v496 a4,4 0 0 1 -4,4 h-1048 a4,4 0 0 1 -4,-4 v-496 a4,4 0 0 1 4,-4"/></clipPath></defs><mask id="satori_om-id-0"><rect x="109" y="43" width="1048" height="496" fill="#fff"/><path width="1056" height="504" fill="none" stroke="#000" stroke-width="8" d="M106.172,40.172 A4,4 0 0 1 109,39 h1048 a4,4 0 0 1 4,4 v496 a4,4 0 0 1 -4,4 h-1048 a4,4 0 0 1 -4,-4 v-496 A4,4 0 0 1 106.172,40.172"/></mask><g opacity="0.9"><path x="105" y="39" width="1056" height="504" fill="#ecebeb" d="M109,39 h1048 a4,4 0 0 1 4,4 v496 a4,4 0 0 1 -4,4 h-1048 a4,4 0 0 1 -4,-4 v-496 a4,4 0 0 1 4,-4"/><path width="1056" height="504" clip-path="url(#satori_bc-id-0)" fill="none" stroke="#000" stroke-width="8" d="M106.172,40.172 A4,4 0 0 1 109,39 h1048 a4,4 0 0 1 4,4 v496 a4,4 0 0 1 -4,4 h-1048 a4,4 0 0 1 -4,-4 v-496 A4,4 0 0 1 106.172,40.172"/></g><defs><clipPath id="satori_bc-id-1"><path x="72" y="63" width="1056" height="504" d="M76,63 h1048 a4,4 0 0 1 4,4 v496 a4,4 0 0 1 -4,4 h-1048 a4,4 0 0 1 -4,-4 v-496 a4,4 0 0 1 4,-4"/></clipPath></defs><mask id="satori_om-id-1"><rect x="76" y="67" width="1048" height="496" fill="#fff"/><path width="1056" height="504" fill="none" stroke="#000" stroke-width="8" d="M73.172,64.172 A4,4 0 0 1 76,63 h1048 a4,4 0 0 1 4,4 v496 a4,4 0 0 1 -4,4 h-1048 a4,4 0 0 1 -4,-4 v-496 A4,4 0 0 1 73.172,64.172"/></mask><path x="72" y="63" width="1056" height="504" fill="#fefbfb" d="M76,63 h1048 a4,4 0 0 1 4,4 v496 a4,4 0 0 1 -4,4 h-1048 a4,4 0 0 1 -4,-4 v-496 a4,4 0 0 1 4,-4"/><path width="1056" height="504" clip-path="url(#satori_bc-id-1)" fill="none" stroke="#000" stroke-width="8" d="M73.172,64.172 A4,4 0 0 1 76,63 h1048 a4,4 0 0 1 4,4 v496 a4,4 0 0 1 -4,4 h-1048 a4,4 0 0 1 -4,-4 v-496 A4,4 0 0 1 73.172,64.172"/><mask id="satori_om-id-1-0"><rect x="128" y="87" width="944" height="446" fill="#fff"/></mask><clipPath id="satori_cp-id-1-0-0"><rect x="128" y="103" width="944" height="187"/></clipPath><mask id="satori_om-id-1-0-0"><rect x="128" y="103" width="944" height="187" fill="#fff"/></mask><path fill="black" d="M145.6 183.0L131.9 183.0L128.8 132.7L138.1 132.7L139.5 162.8L140.0 172.3L140.6 172.3L144.9 143.6L154.6 143.6L159.0 172.3L159.6 172.3L160.0 163.1L161.5 132.7L170.4 132.7L167.3 183.0L153.6 183.0L150.0 155.2L149.2 155.2L145.6 183.0ZM175.9 183.0L175.9 129.7L186.5 129.7L186.5 152.6L187.0 152.6Q187.6 151.0 188.6 149.6Q189.5 148.2 190.8 147.2Q192.2 146.2 193.9 145.5Q195.7 144.9 197.9 144.9L197.9 144.9Q200.6 144.9 202.8 145.8Q205.0 146.7 206.6 148.5Q208.2 150.3 209.1 152.9Q210.0 155.5 210.0 158.9L210.0 158.9L210.0 183.0L199.4 183.0L199.4 160.3Q199.4 153.1 193.1 153.1L193.1 153.1Q191.9 153.1 190.7 153.5Q189.5 153.8 188.6 154.5Q187.6 155.2 187.1 156.2Q186.5 157.2 186.5 158.5L186.5 158.5L186.5 183.0L175.9 183.0ZM239.8 161.4L245.4 145.8L256.2 145.8L238.7 188.9Q237.1 193.0 234.3 195.2Q231.6 197.4 226.9 197.4L226.9 197.4L219.5 197.4L219.5 189.1L228.4 189.1L230.7 182.7L215.8 145.8L227.2 145.8L232.6 161.4L236.0 172.2L236.6 172.2L239.8 161.4Z M322.0 183.8L322.0 183.8Q315.8 183.8 311.2 181.9Q306.6 180.1 304.3 176.8L304.3 176.8L310.3 171.3Q312.5 173.7 315.4 175.0Q318.3 176.3 322.0 176.3L322.0 176.3Q325.2 176.3 327.0 175.4Q328.8 174.4 328.8 172.4L328.8 172.4Q328.8 170.8 327.6 170.2Q326.4 169.6 324.2 169.2L324.2 169.2L318.2 168.3Q315.7 167.9 313.5 167.1Q311.4 166.4 309.8 165.1Q308.2 163.8 307.3 161.9Q306.3 160.1 306.3 157.4L306.3 157.4Q306.3 151.6 310.8 148.2Q315.3 144.9 323.3 144.9L323.3 144.9Q328.8 144.9 332.7 146.4Q336.5 147.9 338.8 150.6L338.8 150.6L333.5 156.7Q331.8 154.9 329.2 153.6Q326.6 152.4 323.0 152.4L323.0 152.4Q316.8 152.4 316.8 156.2L316.8 156.2Q316.8 157.8 318.0 158.4Q319.2 159.0 321.4 159.4L321.4 159.4L327.3 160.3Q329.8 160.7 332.0 161.5Q334.1 162.2 335.8 163.5Q337.4 164.8 338.3 166.7Q339.2 168.6 339.2 171.2L339.2 171.2Q339.2 177.0 334.7 180.4Q330.2 183.8 322.0 183.8ZM348.7 183.0L348.7 129.7L359.3 129.7L359.3 152.6L359.8 152.6Q360.4 151.0 361.4 149.6Q362.3 148.2 363.6 147.2Q365.0 146.2 366.7 145.5Q368.5 144.9 370.7 144.9L370.7 144.9Q373.4 144.9 375.6 145.8Q377.8 146.7 379.4 148.5Q381.0 150.3 381.9 152.9Q382.8 155.5 382.8 158.9L382.8 158.9L382.8 183.0L372.2 183.0L372.2 160.3Q372.2 153.1 365.9 153.1L365.9 153.1Q364.7 153.1 363.5 153.5Q362.3 153.8 361.4 154.5Q360.4 155.2 359.9 156.2Q359.3 157.2 359.3 158.5L359.3 158.5L359.3 183.0L348.7 183.0ZM408.8 183.8L408.8 183.8Q404.5 183.8 401.0 182.5Q397.6 181.2 395.2 178.6Q392.7 176.1 391.4 172.5Q390.2 168.9 390.2 164.4L390.2 164.4Q390.2 159.8 391.4 156.2Q392.7 152.6 395.2 150.1Q397.6 147.6 401.0 146.3Q404.5 144.9 408.8 144.9L408.8 144.9Q413.1 144.9 416.6 146.3Q420.0 147.6 422.4 150.1Q424.9 152.6 426.2 156.2Q427.4 159.8 427.4 164.4L427.4 164.4Q427.4 168.9 426.2 172.5Q424.9 176.1 422.4 178.6Q420.0 181.2 416.6 182.5Q413.1 183.8 408.8 183.8ZM408.8 175.9L408.8 175.9Q412.4 175.9 414.4 173.7Q416.4 171.4 416.4 167.3L416.4 167.3L416.4 161.4Q416.4 157.3 414.4 155.1Q412.4 152.9 408.8 152.9L408.8 152.9Q405.2 152.9 403.2 155.1Q401.2 157.3 401.2 161.4L401.2 161.4L401.2 167.3Q401.2 171.4 403.2 173.7Q405.2 175.9 408.8 175.9ZM458.3 183.0L458.3 176.2L457.8 176.2Q456.6 179.4 454.0 181.6Q451.4 183.8 446.9 183.8L446.9 183.8Q444.2 183.8 442.0 182.9Q439.8 182.0 438.2 180.2Q436.6 178.4 435.7 175.8Q434.8 173.2 434.8 169.8L434.8 169.8L434.8 145.8L445.4 145.8L445.4 168.4Q445.4 175.6 451.7 175.6L451.7 175.6Q452.9 175.6 454.1 175.3Q455.3 175.0 456.2 174.3Q457.1 173.6 457.7 172.6Q458.3 171.6 458.3 170.2L458.3 170.2L458.3 145.8L468.9 145.8L468.9 183.0L458.3 183.0ZM478.5 183.0L478.5 174.7L489.9 174.7L489.9 138.0L478.5 138.0L478.5 129.7L500.5 129.7L500.5 174.7L511.9 174.7L511.9 183.0L478.5 183.0ZM545.1 183.0L545.1 176.2L544.6 176.2Q543.2 179.6 540.6 181.7Q538.0 183.8 533.6 183.8L533.6 183.8Q530.5 183.8 527.9 182.7Q525.4 181.5 523.5 179.1Q521.7 176.8 520.7 173.1Q519.6 169.4 519.6 164.4L519.6 164.4Q519.6 159.3 520.7 155.7Q521.7 152.0 523.5 149.6Q525.4 147.2 527.9 146.1Q530.5 144.9 533.6 144.9L533.6 144.9Q535.8 144.9 537.5 145.5Q539.3 146.1 540.6 147.1Q541.9 148.1 542.9 149.5Q543.9 150.9 544.6 152.6L544.6 152.6L545.1 152.6L545.1 129.7L555.8 129.7L555.8 183.0L545.1 183.0ZM538.2 175.5L538.2 175.5Q541.0 175.5 543.0 174.2Q545.1 172.8 545.1 169.8L545.1 169.8L545.1 158.9Q545.1 156.0 543.0 154.6Q541.0 153.2 538.2 153.2L538.2 153.2Q534.6 153.2 532.6 155.4Q530.7 157.6 530.7 161.5L530.7 161.5L530.7 167.3Q530.7 171.1 532.6 173.3Q534.6 175.5 538.2 175.5Z M641 183.0L608.6 183.0L608.6 175.0L619.4 175.0L619.4 140.7L608.6 140.7L608.6 132.7L641 132.7L641 140.7L630.2 140.7L630.2 175.0L641 175.0L641 183.0Z M169.2 276.6L163.1 276.6Q159.8 276.6 157.7 274.9Q155.7 273.2 155.4 270.0L155.4 270.0L155 270.0Q154.0 273.7 151.0 275.5Q148.0 277.4 143.7 277.4L143.7 277.4Q138.3 277.4 135.0 274.5Q131.7 271.6 131.7 266.3L131.7 266.3Q131.7 260.5 136.0 257.7Q140.2 254.9 148.4 254.9L148.4 254.9L154.4 254.9L154.4 253.0Q154.4 249.7 152.9 248.0Q151.3 246.3 147.7 246.3L147.7 246.3Q144.3 246.3 142.2 247.6Q140.1 248.9 138.6 251.0L138.6 251.0L132.8 245.8Q134.6 242.6 138.6 240.6Q142.6 238.5 148.9 238.5L148.9 238.5Q156.5 238.5 160.8 242.0Q165.1 245.5 165.1 252.6L165.1 252.6L165.1 268.8L169.2 268.8L169.2 276.6ZM147.7 270.4L147.7 270.4Q150.5 270.4 152.5 269.1Q154.4 267.7 154.4 265.1L154.4 265.1L154.4 260.6L148.7 260.6Q142.2 260.6 142.2 265.0L142.2 265.0L142.2 266.5Q142.2 268.4 143.7 269.4Q145.2 270.4 147.7 270.4ZM175.4 291.0L175.4 239.4L186.1 239.4L186.1 246.2L186.6 246.2Q188.0 242.9 190.6 240.7Q193.2 238.5 197.6 238.5L197.6 238.5Q200.7 238.5 203.3 239.7Q205.8 240.8 207.7 243.2Q209.5 245.6 210.5 249.3Q211.6 252.9 211.6 258.0L211.6 258.0Q211.6 263.0 210.5 266.7Q209.5 270.4 207.7 272.7Q205.8 275.1 203.3 276.3Q200.7 277.4 197.6 277.4L197.6 277.4Q193.2 277.4 190.6 275.3Q188.0 273.2 186.6 269.8L186.6 269.8L186.1 269.8L186.1 291.0L175.4 291.0ZM193.0 269.1L193.0 269.1Q196.6 269.1 198.6 266.9Q200.5 264.7 200.5 260.9L200.5 260.9L200.5 255.1Q200.5 251.2 198.6 249.0Q196.6 246.8 193.0 246.8L193.0 246.8Q190.2 246.8 188.2 248.2Q186.1 249.6 186.1 252.5L186.1 252.5L186.1 263.4Q186.1 266.4 188.2 267.8Q190.2 269.1 193.0 269.1ZM236.0 277.4L236.0 277.4Q231.7 277.4 228.2 276.1Q224.8 274.8 222.4 272.2Q219.9 269.7 218.6 266.1Q217.4 262.5 217.4 258.0L217.4 258.0Q217.4 253.4 218.6 249.8Q219.9 246.2 222.4 243.7Q224.8 241.2 228.2 239.9Q231.7 238.5 236.0 238.5L236.0 238.5Q240.3 238.5 243.8 239.9Q247.2 241.2 249.6 243.7Q252.1 246.2 253.4 249.8Q254.6 253.4 254.6 258.0L254.6 258.0Q254.6 262.5 253.4 266.1Q252.1 269.7 249.6 272.2Q247.2 274.8 243.8 276.1Q240.3 277.4 236.0 277.4ZM236.0 269.5L236.0 269.5Q239.6 269.5 241.6 267.3Q243.6 265.0 243.6 260.9L243.6 260.9L243.6 255.0Q243.6 250.9 241.6 248.7Q239.6 246.5 236.0 246.5L236.0 246.5Q232.4 246.5 230.4 248.7Q228.4 250.9 228.4 255.0L228.4 255.0L228.4 260.9Q228.4 265.0 230.4 267.3Q232.4 269.5 236.0 269.5ZM262.5 276.6L262.5 268.3L273.9 268.3L273.9 231.6L262.5 231.6L262.5 223.3L284.5 223.3L284.5 268.3L295.9 268.3L295.9 276.6L262.5 276.6ZM322.4 277.4L322.4 277.4Q318.1 277.4 314.6 276.1Q311.2 274.8 308.8 272.2Q306.3 269.7 305.0 266.1Q303.8 262.5 303.8 258.0L303.8 258.0Q303.8 253.4 305.0 249.8Q306.3 246.2 308.8 243.7Q311.2 241.2 314.6 239.9Q318.1 238.5 322.4 238.5L322.4 238.5Q326.7 238.5 330.2 239.9Q333.6 241.2 336.0 243.7Q338.5 246.2 339.8 249.8Q341.0 253.4 341.0 258.0L341.0 258.0Q341.0 262.5 339.8 266.1Q338.5 269.7 336.0 272.2Q333.6 274.8 330.2 276.1Q326.7 277.4 322.4 277.4ZM322.4 269.5L322.4 269.5Q326.0 269.5 328.0 267.3Q330.0 265.0 330.0 260.9L330.0 260.9L330.0 255.0Q330.0 250.9 328.0 248.7Q326.0 246.5 322.4 246.5L322.4 246.5Q318.8 246.5 316.8 248.7Q314.8 250.9 314.8 255.0L314.8 255.0L314.8 260.9Q314.8 265.0 316.8 267.3Q318.8 269.5 322.4 269.5ZM386.0 280.3L386.0 280.3Q386.0 286.2 381.0 289.0Q376.0 291.8 365.4 291.8L365.4 291.8Q360.1 291.8 356.6 291.2Q353.1 290.6 351.1 289.4Q349.0 288.3 348.2 286.7Q347.4 285.1 347.4 283.2L347.4 283.2Q347.4 280.1 349.3 278.5Q351.1 276.8 354.5 276.0L354.5 276.0L354.5 275.5Q352.1 274.8 350.7 273.5Q349.3 272.2 349.3 269.7L349.3 269.7Q349.3 267.0 351.2 265.7Q353.0 264.4 356.0 263.7L356.0 263.7L356.0 263.2Q352.7 261.6 350.9 258.8Q349.0 255.9 349.0 251.8L349.0 251.8Q349.0 248.5 350.2 246.1Q351.3 243.6 353.5 241.9Q355.6 240.3 358.5 239.4Q361.5 238.5 365.2 238.5L365.2 238.5Q368.7 238.5 371.7 239.3L371.7 239.3L371.7 237.3Q371.7 235.2 373.2 233.7Q374.7 232.3 377.4 232.3L377.4 232.3L384.0 232.3L384.0 240.0L375.0 240.0L375.0 240.7Q378.1 242.3 379.7 245.1Q381.4 247.8 381.4 251.8L381.4 251.8Q381.4 255.0 380.3 257.5Q379.1 259.9 377.0 261.6Q374.8 263.3 371.8 264.2Q368.8 265.0 365.2 265.0L365.2 265.0Q363.5 265.0 362.0 264.9Q360.5 264.7 359.1 264.3L359.1 264.3Q358.3 264.7 357.8 265.4Q357.2 266.0 357.2 267.0L357.2 267.0Q357.2 267.9 357.7 268.4Q358.1 268.9 358.9 269.2Q359.6 269.4 360.6 269.5Q361.6 269.6 362.7 269.6L362.7 269.6L371.2 269.6Q375.2 269.6 378.0 270.4Q380.8 271.2 382.6 272.6Q384.4 274.0 385.2 276.0Q386.0 277.9 386.0 280.3ZM375.9 281.1L375.9 281.1Q375.9 279.6 374.7 278.8Q373.6 278.0 370.4 278.0L370.4 278.0L357.6 278.0Q356.2 279.2 356.2 281.0L356.2 281.0Q356.2 282.7 357.6 283.9Q359.1 285.0 362.6 285.0L362.6 285.0L368.9 285.0Q372.6 285.0 374.2 284.0Q375.9 283.0 375.9 281.1ZM365.2 258.3L365.2 258.3Q368.4 258.3 369.9 256.7Q371.4 255.1 371.4 252.6L371.4 252.6L371.4 250.9Q371.4 248.5 369.9 246.9Q368.4 245.3 365.2 245.3L365.2 245.3Q362.0 245.3 360.6 246.9Q359.1 248.5 359.1 250.9L359.1 250.9L359.1 252.6Q359.1 255.1 360.6 256.7Q362.0 258.3 365.2 258.3ZM411.1 234.6L411.1 234.6Q407.5 234.6 406.1 233.2Q404.7 231.7 404.7 229.6L404.7 229.6L404.7 227.5Q404.7 225.4 406.1 223.9Q407.5 222.5 411.1 222.5L411.1 222.5Q414.7 222.5 416.1 223.9Q417.5 225.4 417.5 227.5L417.5 227.5L417.5 229.6Q417.5 231.7 416.1 233.2Q414.7 234.6 411.1 234.6ZM394.0 276.6L394.0 268.3L405.8 268.3L405.8 247.7L394.0 247.7L394.0 239.4L416.4 239.4L416.4 268.3L427.4 268.3L427.4 276.6L394.0 276.6ZM468.8 276.6L435.2 276.6L435.2 267.7L455.8 247.7L435.9 247.7L435.9 239.4L468.1 239.4L468.1 248.3L447.5 268.3L468.8 268.3L468.8 276.6ZM496.2 277.4L496.2 277.4Q486.8 277.4 482.0 272.2Q477.2 267.0 477.2 258.1L477.2 258.1Q477.2 253.6 478.5 249.9Q479.7 246.3 482.1 243.8Q484.4 241.2 487.7 239.9Q491.1 238.5 495.3 238.5L495.3 238.5Q499.4 238.5 502.8 239.9Q506.1 241.2 508.4 243.6Q510.7 246.1 511.9 249.6Q513.2 253.1 513.2 257.4L513.2 257.4L513.2 260.6L487.8 260.6L487.8 261.2Q487.8 264.8 490.0 267.0Q492.2 269.2 496.6 269.2L496.6 269.2Q499.9 269.2 502.3 267.9Q504.6 266.7 506.4 264.6L506.4 264.6L512.1 270.9Q510.0 273.5 506.1 275.5Q502.2 277.4 496.2 277.4ZM495.3 246.2L495.3 246.2Q491.9 246.2 489.8 248.3Q487.8 250.4 487.8 254.0L487.8 254.0L487.8 254.6L502.8 254.6L502.8 254.0Q502.8 250.3 500.8 248.3Q498.8 246.2 495.3 246.2Z " clip-path="url(#satori_cp-id-1-0-0)" mask="url(#satori_om-id-1-0-0)"/><mask id="satori_om-id-1-0-1"><rect x="128" y="489" width="944" height="36" fill="#fff"/></mask><mask id="satori_om-id-1-0-1-0"><rect x="128" y="489" width="236" height="36" fill="#fff"/></mask><path fill="black" d="M130.7 520.3L130.7 499.6L132.9 499.6L132.9 508.2L133.0 508.2Q134.4 505.5 137.5 505.5L137.5 505.5Q140.1 505.5 141.6 507.5Q143.1 509.5 143.1 513.0L143.1 513.0Q143.1 516.6 141.6 518.6Q140.1 520.6 137.5 520.6L137.5 520.6Q134.4 520.6 133.0 517.9L133.0 517.9L132.9 517.9L132.9 520.3L130.7 520.3ZM136.6 518.6L136.6 518.6Q138.6 518.6 139.6 517.4Q140.7 516.2 140.7 514.3L140.7 514.3L140.7 511.8Q140.7 509.9 139.6 508.7Q138.6 507.5 136.6 507.5L136.6 507.5Q135.8 507.5 135.2 507.7Q134.5 507.9 134.0 508.2Q133.5 508.6 133.2 509.2Q132.9 509.7 132.9 510.4L132.9 510.4L132.9 515.7Q132.9 516.4 133.2 516.9Q133.5 517.5 134.0 517.8Q134.5 518.2 135.2 518.4Q135.8 518.6 136.6 518.6ZM155.4 511.9L157.9 505.8L160.1 505.8L152.9 523.4Q152.7 524.1 152.4 524.5Q152.1 525.0 151.7 525.3Q151.2 525.6 150.7 525.7Q150.1 525.9 149.3 525.9L149.3 525.9L147.1 525.9L147.1 524.0L150.5 524.0L152.1 520.0L146.3 505.8L148.6 505.8L151.0 511.9L153.2 517.4L153.3 517.4L155.4 511.9Z "/><mask id="satori_om-id-1-0-1-0-1"><rect x="162" y="489" width="17" height="36" fill="#fff"/></mask><clipPath id="satori_cp-id-1-0-1-0-2"><rect x="178" y="489" width="185" height="36"/></clipPath><mask id="satori_om-id-1-0-1-0-2"><rect x="178" y="489" width="185" height="36" fill="#fff"/></mask><path fill="black" d="M181.6 500.5L192.3 500.5L192.3 514.6Q192.3 515.9 191.8 517.0Q191.4 518.1 190.5 518.9Q189.7 519.6 188.5 520.0Q187.3 520.4 185.8 520.4L185.8 520.4Q182.8 520.4 181.2 518.9Q179.5 517.4 179.1 515.0L179.1 515.0L183.0 514.2Q183.3 515.4 183.9 516.2Q184.5 517.0 185.8 517.0L185.8 517.0Q186.8 517.0 187.4 516.3Q188.1 515.6 188.1 514.2L188.1 514.2L188.1 504.0L181.6 504.0L181.6 500.5ZM203.2 520.4L203.2 520.4Q201.5 520.4 200.2 519.9Q198.8 519.4 197.9 518.4Q197.0 517.4 196.5 516.0Q195.9 514.6 195.9 512.9L195.9 512.9Q195.9 511.1 196.5 509.7Q197.0 508.3 197.9 507.3Q198.8 506.3 200.2 505.8Q201.5 505.3 203.2 505.3L203.2 505.3Q204.9 505.3 206.2 505.8Q207.6 506.3 208.5 507.3Q209.4 508.3 209.9 509.7Q210.5 511.1 210.5 512.9L210.5 512.9Q210.5 514.6 209.9 516.0Q209.4 517.4 208.5 518.4Q207.6 519.4 206.2 519.9Q204.9 520.4 203.2 520.4ZM203.2 517.3L203.2 517.3Q204.6 517.3 205.4 516.5Q206.2 515.6 206.2 514.0L206.2 514.0L206.2 511.7Q206.2 510.1 205.4 509.3Q204.6 508.4 203.2 508.4L203.2 508.4Q201.8 508.4 201.0 509.3Q200.2 510.1 200.2 511.7L200.2 511.7L200.2 514.0Q200.2 515.6 201.0 516.5Q201.8 517.3 203.2 517.3ZM217.6 520.1L213.4 520.1L213.4 505.6L217.6 505.6L217.6 508.3L217.7 508.3Q218.0 507.7 218.3 507.1Q218.7 506.6 219.2 506.2Q219.7 505.8 220.4 505.5Q221.1 505.3 222.0 505.3L222.0 505.3Q223.0 505.3 223.9 505.7Q224.8 506.0 225.4 506.7Q226.0 507.4 226.3 508.4Q226.7 509.4 226.7 510.7L226.7 510.7L226.7 520.1L222.5 520.1L222.5 511.3Q222.5 508.5 220.1 508.5L220.1 508.5Q219.6 508.5 219.2 508.6Q218.7 508.8 218.3 509.0Q218.0 509.3 217.8 509.7Q217.6 510.1 217.6 510.6L217.6 510.6L217.6 520.1Z M259.9 520.1L247.4 520.1L247.4 500.5L259.9 500.5L259.9 504.0L251.6 504.0L251.6 508.5L259.6 508.5L259.6 511.9L251.6 511.9L251.6 516.6L259.9 516.6L259.9 520.1ZM263.9 520.1L263.9 516.9L268.3 516.9L268.3 502.6L263.9 502.6L263.9 499.4L272.5 499.4L272.5 516.9L276.9 516.9L276.9 520.1L263.9 520.1ZM280.7 520.1L280.7 516.9L285.1 516.9L285.1 502.6L280.7 502.6L280.7 499.4L289.3 499.4L289.3 516.9L293.7 516.9L293.7 520.1L280.7 520.1ZM297.5 520.1L295.8 505.6L299.2 505.6L300.3 517.3L300.6 517.3L302.3 505.6L305.9 505.6L307.6 517.3L307.9 517.3L308.9 505.6L312.2 505.6L310.5 520.1L305.6 520.1L304.1 510.1L303.9 510.1L302.4 520.1L297.5 520.1ZM320.8 520.4L320.8 520.4Q319.1 520.4 317.8 519.9Q316.4 519.4 315.5 518.4Q314.6 517.4 314.1 516.0Q313.5 514.6 313.5 512.9L313.5 512.9Q313.5 511.1 314.1 509.7Q314.6 508.3 315.5 507.3Q316.4 506.3 317.8 505.8Q319.1 505.3 320.8 505.3L320.8 505.3Q322.5 505.3 323.8 505.8Q325.2 506.3 326.1 507.3Q327.0 508.3 327.5 509.7Q328.1 511.1 328.1 512.9L328.1 512.9Q328.1 514.6 327.5 516.0Q327.0 517.4 326.1 518.4Q325.2 519.4 323.8 519.9Q322.5 520.4 320.8 520.4ZM320.8 517.3L320.8 517.3Q322.2 517.3 323.0 516.5Q323.8 515.6 323.8 514.0L323.8 514.0L323.8 511.7Q323.8 510.1 323.0 509.3Q322.2 508.4 320.8 508.4L320.8 508.4Q319.4 508.4 318.6 509.3Q317.8 510.1 317.8 511.7L317.8 511.7L317.8 514.0Q317.8 515.6 318.6 516.5Q319.4 517.3 320.8 517.3ZM337.6 520.4L337.6 520.4Q335.9 520.4 334.6 519.9Q333.2 519.4 332.3 518.4Q331.4 517.4 330.9 516.0Q330.3 514.6 330.3 512.9L330.3 512.9Q330.3 511.1 330.9 509.7Q331.4 508.3 332.3 507.3Q333.2 506.3 334.6 505.8Q335.9 505.3 337.6 505.3L337.6 505.3Q339.3 505.3 340.6 505.8Q342.0 506.3 342.9 507.3Q343.8 508.3 344.3 509.7Q344.9 511.1 344.9 512.9L344.9 512.9Q344.9 514.6 344.3 516.0Q343.8 517.4 342.9 518.4Q342.0 519.4 340.6 519.9Q339.3 520.4 337.6 520.4ZM337.6 517.3L337.6 517.3Q339.0 517.3 339.8 516.5Q340.6 515.6 340.6 514.0L340.6 514.0L340.6 511.7Q340.6 510.1 339.8 509.3Q339.0 508.4 337.6 508.4L337.6 508.4Q336.2 508.4 335.4 509.3Q334.6 510.1 334.6 511.7L334.6 511.7L334.6 514.0Q334.6 515.6 335.4 516.5Q336.2 517.3 337.6 517.3ZM357.0 520.1L357.0 517.5L356.8 517.5Q356.2 518.8 355.3 519.6Q354.3 520.4 352.5 520.4L352.5 520.4Q351.3 520.4 350.3 520.0Q349.3 519.5 348.6 518.6Q347.9 517.7 347.5 516.3Q347.1 514.8 347.1 512.9L347.1 512.9Q347.1 510.9 347.5 509.5Q347.9 508.1 348.6 507.1Q349.3 506.2 350.3 505.8Q351.3 505.3 352.5 505.3L352.5 505.3Q353.4 505.3 354.1 505.5Q354.7 505.8 355.3 506.1Q355.8 506.5 356.2 507.1Q356.5 507.6 356.8 508.3L356.8 508.3L357.0 508.3L357.0 499.4L361.1 499.4L361.1 520.1L357.0 520.1ZM354.3 517.2L354.3 517.2Q355.4 517.2 356.2 516.7Q357.0 516.1 357.0 515.0L357.0 515.0L357.0 510.7Q357.0 509.6 356.2 509.1Q355.4 508.5 354.3 508.5L354.3 508.5Q352.9 508.5 352.2 509.4Q351.4 510.2 351.4 511.7L351.4 511.7L351.4 514.0Q351.4 515.5 352.2 516.4Q352.9 517.2 354.3 517.2Z " clip-path="url(#satori_cp-id-1-0-1-0-2)" mask="url(#satori_om-id-1-0-1-0-2)"/><clipPath id="satori_cp-id-1-0-1-1"><rect x="752" y="489" width="320" height="36"/></clipPath><mask id="satori_om-id-1-0-1-1"><rect x="752" y="489" width="320" height="36" fill="#fff"/></mask><path fill="black" d="M768.1 504.0L762.5 504.0L762.5 520.1L758.3 520.1L758.3 504.0L752.7 504.0L752.7 500.5L768.1 500.5L768.1 504.0ZM770.6 520.1L770.6 499.4L774.8 499.4L774.8 508.3L774.9 508.3Q775.2 507.7 775.5 507.1Q775.9 506.6 776.4 506.2Q776.9 505.8 777.6 505.5Q778.3 505.3 779.2 505.3L779.2 505.3Q780.2 505.3 781.1 505.7Q782.0 506.0 782.6 506.7Q783.2 507.4 783.5 508.4Q783.9 509.4 783.9 510.7L783.9 510.7L783.9 520.1L779.7 520.1L779.7 511.3Q779.7 508.5 777.3 508.5L777.3 508.5Q776.8 508.5 776.4 508.6Q775.9 508.8 775.5 509.0Q775.2 509.3 775.0 509.7Q774.8 510.1 774.8 510.6L774.8 510.6L774.8 520.1L770.6 520.1ZM794.4 520.4L794.4 520.4Q790.8 520.4 788.9 518.4Q787.0 516.4 787.0 512.9L787.0 512.9Q787.0 511.2 787.5 509.7Q788.0 508.3 788.9 507.3Q789.8 506.3 791.1 505.8Q792.4 505.3 794.0 505.3L794.0 505.3Q795.7 505.3 796.9 505.8Q798.2 506.3 799.1 507.3Q800.0 508.2 800.5 509.6Q801.0 511.0 801.0 512.6L801.0 512.6L801.0 513.9L791.1 513.9L791.1 514.1Q791.1 515.5 792.0 516.4Q792.9 517.2 794.5 517.2L794.5 517.2Q795.8 517.2 796.7 516.7Q797.7 516.3 798.3 515.4L798.3 515.4L800.6 517.9Q799.7 518.9 798.2 519.7Q796.7 520.4 794.4 520.4ZM794.1 508.3L794.1 508.3Q792.7 508.3 791.9 509.1Q791.1 509.9 791.1 511.3L791.1 511.3L791.1 511.6L796.9 511.6L796.9 511.3Q796.9 509.9 796.2 509.1Q795.4 508.3 794.1 508.3Z M820.7 500.5L824.9 500.5L824.9 512.9Q824.9 513.8 825.0 514.6Q825.1 515.4 825.3 515.9Q825.6 516.5 826.1 516.7Q826.7 517.0 827.6 517.0L827.6 517.0Q828.5 517.0 829.1 516.7Q829.6 516.5 829.9 515.9Q830.1 515.4 830.2 514.6Q830.3 513.8 830.3 512.9L830.3 512.9L830.3 500.5L834.5 500.5L834.5 512.4Q834.5 514.4 834.2 515.9Q833.9 517.4 833.2 518.4Q832.4 519.4 831.1 519.9Q829.7 520.4 827.6 520.4L827.6 520.4Q825.5 520.4 824.1 519.9Q822.8 519.4 822.0 518.4Q821.3 517.4 821.0 515.9Q820.7 514.4 820.7 512.4L820.7 512.4L820.7 500.5ZM842.0 520.1L837.8 520.1L837.8 505.6L842.0 505.6L842.0 508.3L842.1 508.3Q842.4 507.7 842.7 507.1Q843.1 506.6 843.6 506.2Q844.1 505.8 844.8 505.5Q845.5 505.3 846.4 505.3L846.4 505.3Q847.4 505.3 848.3 505.7Q849.2 506.0 849.8 506.7Q850.4 507.4 850.7 508.4Q851.1 509.4 851.1 510.7L851.1 510.7L851.1 520.1L846.9 520.1L846.9 511.3Q846.9 508.5 844.5 508.5L844.5 508.5Q844.0 508.5 843.6 508.6Q843.1 508.8 842.7 509.0Q842.4 509.3 842.2 509.7Q842.0 510.1 842.0 510.6L842.0 510.6L842.0 520.1ZM854.6 520.1L854.6 499.4L858.8 499.4L858.8 508.3L858.9 508.3Q859.2 507.7 859.5 507.1Q859.9 506.6 860.4 506.2Q860.9 505.8 861.6 505.5Q862.3 505.3 863.2 505.3L863.2 505.3Q864.2 505.3 865.1 505.7Q866.0 506.0 866.6 506.7Q867.2 507.4 867.5 508.4Q867.9 509.4 867.9 510.7L867.9 510.7L867.9 520.1L863.7 520.1L863.7 511.3Q863.7 508.5 861.3 508.5L861.3 508.5Q860.8 508.5 860.4 508.6Q859.9 508.8 859.5 509.0Q859.2 509.3 859.0 509.7Q858.8 510.1 858.8 510.6L858.8 510.6L858.8 520.1L854.6 520.1ZM878.4 520.4L878.4 520.4Q874.8 520.4 872.9 518.4Q871.0 516.4 871.0 512.9L871.0 512.9Q871.0 511.2 871.5 509.7Q872.0 508.3 872.9 507.3Q873.8 506.3 875.1 505.8Q876.4 505.3 878.0 505.3L878.0 505.3Q879.7 505.3 880.9 505.8Q882.2 506.3 883.1 507.3Q884.0 508.2 884.5 509.6Q885.0 511.0 885.0 512.6L885.0 512.6L885.0 513.9L875.1 513.9L875.1 514.1Q875.1 515.5 876.0 516.4Q876.9 517.2 878.5 517.2L878.5 517.2Q879.8 517.2 880.7 516.7Q881.7 516.3 882.3 515.4L882.3 515.4L884.6 517.9Q883.7 518.9 882.2 519.7Q880.7 520.4 878.4 520.4ZM878.1 508.3L878.1 508.3Q876.7 508.3 875.9 509.1Q875.1 509.9 875.1 511.3L875.1 511.3L875.1 511.6L880.9 511.6L880.9 511.3Q880.9 509.9 880.2 509.1Q879.4 508.3 878.1 508.3ZM902.4 520.1L900.0 520.1Q898.7 520.1 898.0 519.4Q897.2 518.8 897.0 517.5L897.0 517.5L896.9 517.5Q896.5 519.0 895.3 519.7Q894.2 520.4 892.5 520.4L892.5 520.4Q890.4 520.4 889.1 519.3Q887.9 518.2 887.9 516.1L887.9 516.1Q887.9 513.8 889.5 512.8Q891.2 511.7 894.4 511.7L894.4 511.7L896.7 511.7L896.7 510.9Q896.7 509.6 896.1 509.0Q895.5 508.3 894.0 508.3L894.0 508.3Q892.7 508.3 891.9 508.8Q891.1 509.3 890.5 510.2L890.5 510.2L888.2 508.1Q889.0 506.9 890.5 506.1Q892.1 505.3 894.5 505.3L894.5 505.3Q897.5 505.3 899.2 506.7Q900.8 508.0 900.8 510.8L900.8 510.8L900.8 517.1L902.4 517.1L902.4 520.1ZM894.1 517.7L894.1 517.7Q895.2 517.7 895.9 517.2Q896.7 516.6 896.7 515.6L896.7 515.6L896.7 513.9L894.5 513.9Q891.9 513.9 891.9 515.6L891.9 515.6L891.9 516.2Q891.9 516.9 892.5 517.3Q893.1 517.7 894.1 517.7ZM905.1 520.1L905.1 516.9L909.5 516.9L909.5 502.6L905.1 502.6L905.1 499.4L913.7 499.4L913.7 516.9L918.1 516.9L918.1 520.1L905.1 520.1ZM934.9 520.1L929.5 520.1Q927.3 520.1 926.2 518.9Q925.1 517.7 925.1 515.9L925.1 515.9L925.1 508.9L921.2 508.9L921.2 505.6L923.7 505.6Q924.6 505.6 925.0 505.3Q925.4 504.9 925.4 503.9L925.4 503.9L925.4 500.5L929.2 500.5L929.2 505.6L934.9 505.6L934.9 508.9L929.2 508.9L929.2 516.9L934.9 516.9L934.9 520.1ZM938.6 520.1L938.6 499.4L942.8 499.4L942.8 508.3L942.9 508.3Q943.2 507.7 943.5 507.1Q943.9 506.6 944.4 506.2Q944.9 505.8 945.6 505.5Q946.3 505.3 947.2 505.3L947.2 505.3Q948.2 505.3 949.1 505.7Q950.0 506.0 950.6 506.7Q951.2 507.4 951.5 508.4Q951.9 509.4 951.9 510.7L951.9 510.7L951.9 520.1L947.7 520.1L947.7 511.3Q947.7 508.5 945.3 508.5L945.3 508.5Q944.8 508.5 944.4 508.6Q943.9 508.8 943.5 509.0Q943.2 509.3 943.0 509.7Q942.8 510.1 942.8 510.6L942.8 510.6L942.8 520.1L938.6 520.1ZM963.5 511.7L965.6 505.6L969.9 505.6L963.1 522.4Q962.4 524.0 961.4 524.9Q960.3 525.7 958.4 525.7L958.4 525.7L955.6 525.7L955.6 522.5L959.1 522.5L960.0 520.0L954.1 505.6L958.6 505.6L960.7 511.7L962.0 515.9L962.2 515.9L963.5 511.7Z M998.6 520.1L992.6 520.1L987.5 500.5L992.1 500.5L994.4 510.5L995.6 516.1L995.8 516.1L997.0 510.5L999.3 500.5L1003.7 500.5L998.6 520.1ZM1012.8 520.4L1012.8 520.4Q1009.2 520.4 1007.3 518.4Q1005.4 516.4 1005.4 512.9L1005.4 512.9Q1005.4 511.2 1005.9 509.7Q1006.4 508.3 1007.3 507.3Q1008.2 506.3 1009.5 505.8Q1010.8 505.3 1012.4 505.3L1012.4 505.3Q1014.1 505.3 1015.3 505.8Q1016.6 506.3 1017.5 507.3Q1018.4 508.2 1018.9 509.6Q1019.4 511.0 1019.4 512.6L1019.4 512.6L1019.4 513.9L1009.5 513.9L1009.5 514.1Q1009.5 515.5 1010.4 516.4Q1011.3 517.2 1012.9 517.2L1012.9 517.2Q1014.2 517.2 1015.1 516.7Q1016.1 516.3 1016.7 515.4L1016.7 515.4L1019.0 517.9Q1018.1 518.9 1016.6 519.7Q1015.1 520.4 1012.8 520.4ZM1012.5 508.3L1012.5 508.3Q1011.1 508.3 1010.3 509.1Q1009.5 509.9 1009.5 511.3L1009.5 511.3L1009.5 511.6L1015.3 511.6L1015.3 511.3Q1015.3 509.9 1014.6 509.1Q1013.8 508.3 1012.5 508.3ZM1037.1 521.5L1037.1 521.5Q1037.1 523.8 1035.2 524.9Q1033.3 526.0 1029.1 526.0L1029.1 526.0Q1027.0 526.0 1025.7 525.8Q1024.4 525.6 1023.6 525.1Q1022.8 524.7 1022.4 524.0Q1022.1 523.4 1022.1 522.7L1022.1 522.7Q1022.1 521.5 1022.8 520.8Q1023.6 520.2 1024.9 519.9L1024.9 519.9L1024.9 519.7Q1024.0 519.4 1023.4 518.9Q1022.9 518.4 1022.9 517.4L1022.9 517.4Q1022.9 516.4 1023.6 515.9Q1024.3 515.4 1025.5 515.1L1025.5 515.1L1025.5 514.9Q1024.2 514.3 1023.5 513.2Q1022.8 512.1 1022.8 510.5L1022.8 510.5Q1022.8 509.2 1023.2 508.2Q1023.7 507.3 1024.5 506.6Q1025.3 506.0 1026.5 505.6Q1027.6 505.3 1029.0 505.3L1029.0 505.3Q1030.4 505.3 1031.6 505.6L1031.6 505.6L1031.6 504.8Q1031.6 504.0 1032.2 503.4Q1032.8 502.9 1033.8 502.9L1033.8 502.9L1036.3 502.9L1036.3 505.9L1032.9 505.9L1032.9 506.1Q1034.0 506.8 1034.7 507.8Q1035.4 508.9 1035.4 510.5L1035.4 510.5Q1035.4 511.7 1034.9 512.7Q1034.5 513.6 1033.6 514.3Q1032.8 514.9 1031.6 515.3Q1030.5 515.6 1029.0 515.6L1029.0 515.6Q1028.4 515.6 1027.8 515.5Q1027.2 515.5 1026.7 515.3L1026.7 515.3Q1026.4 515.5 1026.2 515.8Q1026.0 516.0 1026.0 516.4L1026.0 516.4Q1026.0 516.7 1026.1 516.9Q1026.3 517.1 1026.6 517.2Q1026.9 517.3 1027.3 517.3Q1027.7 517.4 1028.1 517.4L1028.1 517.4L1031.4 517.4Q1032.9 517.4 1034.0 517.7Q1035.1 518.0 1035.8 518.6Q1036.5 519.1 1036.8 519.9Q1037.1 520.6 1037.1 521.5ZM1033.2 521.9L1033.2 521.9Q1033.2 521.3 1032.8 521.0Q1032.3 520.7 1031.0 520.7L1031.0 520.7L1026.1 520.7Q1025.5 521.1 1025.5 521.8L1025.5 521.8Q1025.5 522.5 1026.1 522.9Q1026.7 523.4 1028.1 523.4L1028.1 523.4L1030.5 523.4Q1031.9 523.4 1032.6 523.0Q1033.2 522.6 1033.2 521.9ZM1029.0 513.0L1029.0 513.0Q1030.3 513.0 1030.9 512.4Q1031.4 511.7 1031.4 510.8L1031.4 510.8L1031.4 510.1Q1031.4 509.2 1030.9 508.6Q1030.3 507.9 1029.0 507.9L1029.0 507.9Q1027.8 507.9 1027.2 508.6Q1026.7 509.2 1026.7 510.1L1026.7 510.1L1026.7 510.8Q1026.7 511.7 1027.2 512.4Q1027.8 513.0 1029.0 513.0ZM1053.6 520.1L1051.2 520.1Q1049.9 520.1 1049.2 519.4Q1048.4 518.8 1048.2 517.5L1048.2 517.5L1048.1 517.5Q1047.7 519.0 1046.5 519.7Q1045.4 520.4 1043.7 520.4L1043.7 520.4Q1041.6 520.4 1040.3 519.3Q1039.1 518.2 1039.1 516.1L1039.1 516.1Q1039.1 513.8 1040.7 512.8Q1042.4 511.7 1045.6 511.7L1045.6 511.7L1047.9 511.7L1047.9 510.9Q1047.9 509.6 1047.3 509.0Q1046.7 508.3 1045.2 508.3L1045.2 508.3Q1043.9 508.3 1043.1 508.8Q1042.3 509.3 1041.7 510.2L1041.7 510.2L1039.4 508.1Q1040.2 506.9 1041.7 506.1Q1043.3 505.3 1045.7 505.3L1045.7 505.3Q1048.7 505.3 1050.4 506.7Q1052.0 508.0 1052.0 510.8L1052.0 510.8L1052.0 517.1L1053.6 517.1L1053.6 520.1ZM1045.3 517.7L1045.3 517.7Q1046.4 517.7 1047.1 517.2Q1047.9 516.6 1047.9 515.6L1047.9 515.6L1047.9 513.9L1045.7 513.9Q1043.1 513.9 1043.1 515.6L1043.1 515.6L1043.1 516.2Q1043.1 516.9 1043.7 517.3Q1044.3 517.7 1045.3 517.7ZM1060.4 520.1L1056.2 520.1L1056.2 505.6L1060.4 505.6L1060.4 508.3L1060.5 508.3Q1060.8 507.7 1061.1 507.1Q1061.5 506.6 1062.0 506.2Q1062.5 505.8 1063.2 505.5Q1063.9 505.3 1064.8 505.3L1064.8 505.3Q1065.8 505.3 1066.7 505.7Q1067.6 506.0 1068.2 506.7Q1068.8 507.4 1069.1 508.4Q1069.5 509.4 1069.5 510.7L1069.5 510.7L1069.5 520.1L1065.3 520.1L1065.3 511.3Q1065.3 508.5 1062.9 508.5L1062.9 508.5Q1062.4 508.5 1062.0 508.6Q1061.5 508.8 1061.1 509.0Q1060.8 509.3 1060.6 509.7Q1060.4 510.1 1060.4 510.6L1060.4 510.6L1060.4 520.1Z " clip-path="url(#satori_cp-id-1-0-1-1)" mask="url(#satori_om-id-1-0-1-1)"/></svg>